<?xml version="1.0" encoding="UTF-8"?>
<!-- Generator: Adobe Illustrator 20.1.0, SVG Export Plug-In . SVG Version: 6.00 Build 0)  -->
<svg version="1.1" id="Laag_1" xmlns="http://www.w3.org/2000/svg" xmlns:xlink="http://www.w3.org/1999/xlink" x="0px" y="0px" viewBox="0 0 1014.2 1016" style="enable-background:new 0 0 1014.2 1016;" xml:space="preserve">
<style type="text/css">
	.st0{fill:#0A1724;}
</style>
<title>Java</title>
<path class="st0" d="M591,764.9c0,10.2,5.8,16.6,16.4,16.6c7.5,0,15.8-3.8,23.7-10.7v-25.1h-9.2C597.1,745.7,591,753.8,591,764.9z"/>
<path class="st0" d="M433,745.7h-9.1c-24.7,0-30.9,8.1-30.9,19.2c0,10.2,5.8,16.6,16.4,16.6c7.5,0,15.8-3.8,23.6-10.7L433,745.7z"/>
<g>
	<path class="st0" d="M437.9,454.6c-17.2,1.3-25.7,14.1-30,34.8c-4.3,20.2,0,33.8,17.5,33.8h23.1c1.1,0,2.4-0.7,2.7-1.8l4.5-15.3   l4.9-17.4C466.3,469.5,461.5,452.8,437.9,454.6z"/>
	<path class="st0" d="M639.5,478.1c-11.1,0-18.1,4.6-20.4,12.8c-0.1,0.3-0.2,1.5-0.2,1.6c0.1,1,0.4,2.5,1.4,2.5l30.3,0.2   c0,0,3.8,0.2,3.8-1l0.2-3.1C654.7,484.3,652,478.1,639.5,478.1z"/>
	<path class="st0" d="M959.5,160.8C870.5,18.2,703,6.9,463.7,0.3C229.9-6,112.7,63.5,46.3,202.9C-30.5,363.8-5.2,626.2,74.2,781.3   c186.1,363.8,745.4,286.1,891.9-116.7C1019,519.2,1038.8,287.6,959.5,160.8z M697.1,467.1l0.3-1.3c-0.2,1-0.5,2.4-0.7,3.3l-7.9,37   L697.1,467.1z M239.7,439.7l3.5-4.9c-6.5,11.8-0.3,26.3,9.7,33.9c1.8,1.3,3.7,2.5,5.6,3.4c1.1,0.5,2.1,0.9,3.2,1.3   c0.9,0.3,1.8,0.6,2.7,0.8c11.2,2.7,20.3,0.8,25.8-7c-1.7,2.4-7.9,18.5-30.7,14.1c-0.5-0.1-1-0.3-1.5-0.4c-0.2,0-0.3-0.1-0.5-0.1   c-0.3-0.1-0.7-0.2-1-0.4c-8.3-3-15.4-9.4-18.8-17.6C234.5,455.3,234.9,446.6,239.7,439.7z M221.3,554c-0.8-0.2-1.6-0.5-2.5-0.7   c-0.2,0-0.4-0.1-0.6-0.2c-0.8-0.3-1.6-0.5-2.4-0.8c-0.1,0-0.2-0.1-0.3-0.1c-0.7-0.3-1.4-0.5-2.1-0.8c-0.2-0.1-0.4-0.1-0.6-0.2   c-0.8-0.3-1.5-0.6-2.3-0.9c-0.1-0.1-0.3-0.1-0.4-0.2c-0.7-0.3-1.3-0.6-2-0.9c-0.2-0.1-0.3-0.2-0.5-0.2c-0.1,0-0.2-0.1-0.3-0.1   c-0.4-0.2-0.8-0.4-1.2-0.6c-0.3-0.2-0.6-0.3-1-0.5c-0.6-0.3-1.2-0.6-1.7-1c-0.2-0.1-0.4-0.2-0.6-0.4c-0.8-0.5-1.5-0.9-2.3-1.4   c-0.2-0.1-0.4-0.3-0.6-0.4c-0.5-0.3-1-0.6-1.5-1c0,0-0.1-0.1-0.1-0.1c-0.2-0.1-0.4-0.3-0.6-0.4c-0.5-0.4-1-0.7-1.5-1.1   c-0.2-0.2-0.5-0.4-0.7-0.5c-0.5-0.3-0.9-0.7-1.4-1c-0.2-0.2-0.4-0.3-0.7-0.5c-0.5-0.5-1.1-0.9-1.6-1.4c-0.1-0.1-0.2-0.2-0.3-0.3   c0,0,0,0,0,0c-0.6-0.5-1.2-1.1-1.8-1.6c-0.2-0.2-0.4-0.3-0.5-0.5c-0.4-0.4-0.9-0.8-1.3-1.3c-0.2-0.2-0.4-0.3-0.5-0.5   c-0.5-0.6-1.1-1.1-1.6-1.7c0,0-0.1,0-0.1-0.1c0,0,0,0,0,0c-0.5-0.6-1.1-1.2-1.6-1.8c-0.2-0.2-0.3-0.4-0.4-0.5   c-0.4-0.5-0.8-0.9-1.2-1.4c-0.1-0.2-0.3-0.4-0.5-0.6c-0.4-0.5-0.8-1.1-1.2-1.6c-0.1-0.1-0.2-0.2-0.2-0.3c0,0,0,0,0,0   c-0.5-0.6-0.9-1.3-1.4-2c-0.1-0.2-0.3-0.4-0.4-0.6c-0.3-0.5-0.6-1-0.9-1.5c-0.2-0.3-0.3-0.5-0.5-0.8c-0.3-0.5-0.5-0.9-0.8-1.4   c-0.1-0.3-0.3-0.5-0.4-0.8c-0.1-0.1-0.2-0.3-0.2-0.4c-0.1-0.3-0.3-0.5-0.4-0.8c-0.2-0.4-0.4-0.8-0.6-1.2   c-8.5-16.9-9.9-37.7,1.2-53.6l8.7-11c-9.8,18.9-5.4,41.9,6.8,58.5c0.4,0.6,0.9,1.2,1.4,1.8c0.1,0.2,0.3,0.4,0.4,0.5   c0.4,0.5,0.8,1,1.2,1.4c0.1,0.2,0.3,0.3,0.4,0.5c0.5,0.6,1.1,1.2,1.6,1.9c0,0,0.1,0.1,0.1,0.1c0.5,0.6,1.1,1.1,1.6,1.7   c0.2,0.2,0.3,0.3,0.5,0.5c0.4,0.4,0.9,0.8,1.3,1.3c0.2,0.2,0.3,0.3,0.5,0.5c0.6,0.6,1.2,1.1,1.8,1.7c0.1,0,0.1,0.1,0.2,0.2   c0.6,0.5,1.1,1,1.7,1.5c0.2,0.2,0.4,0.3,0.6,0.5c0.5,0.4,0.9,0.7,1.4,1.1c0.2,0.2,0.5,0.3,0.7,0.5c0.5,0.4,1,0.7,1.5,1.1   c0.2,0.1,0.4,0.3,0.5,0.4c0.5,0.4,1.1,0.7,1.6,1.1c0.2,0.1,0.4,0.3,0.6,0.4c0.8,0.5,1.5,0.9,2.3,1.4c0.2,0.1,0.4,0.2,0.6,0.3   c0.6,0.3,1.2,0.7,1.8,1c0.3,0.2,0.6,0.3,1,0.5c0.5,0.3,1,0.5,1.5,0.7c0.2,0.1,0.4,0.2,0.6,0.3c0.6,0.3,1.2,0.6,1.9,0.9   c0.2,0.1,0.3,0.1,0.5,0.2c0.7,0.3,1.5,0.6,2.3,0.9c0.2,0.1,0.4,0.1,0.6,0.2c0.7,0.3,1.4,0.5,2.1,0.8c0.1,0,0.2,0.1,0.3,0.1   c0.8,0.3,1.6,0.5,2.4,0.8c0.2,0.1,0.4,0.1,0.6,0.2c0.8,0.2,1.6,0.5,2.5,0.7c22,5,45.2,0.5,58.3-16.5   C290.6,521.8,275,563.8,221.3,554z M242.6,515.5c-0.8-0.1-1.6-0.4-2.3-0.7c-0.2-0.1-0.5-0.1-0.7-0.2c-0.5-0.2-1.1-0.4-1.6-0.6   c-0.2-0.1-0.5-0.2-0.8-0.3c-0.6-0.2-1.2-0.5-1.8-0.7c-0.2-0.1-0.3-0.1-0.5-0.2c-0.7-0.3-1.4-0.6-2.1-1c-0.1,0-0.1,0-0.2-0.1   c-0.3-0.2-0.7-0.4-1-0.5c-0.2-0.1-0.3-0.2-0.5-0.3c-0.5-0.3-1-0.5-1.5-0.8c-0.1,0-0.2-0.1-0.2-0.1c-0.6-0.3-1.1-0.7-1.7-1   c-0.2-0.1-0.3-0.2-0.5-0.3c-0.4-0.2-0.7-0.4-1-0.7c0,0-0.1,0-0.1,0c-0.8-0.5-1.5-1.1-2.2-1.6c-0.2-0.1-0.3-0.3-0.5-0.4   c-0.7-0.6-1.4-1.2-2.1-1.8c0,0,0,0,0,0c0,0-0.1,0-0.1-0.1c-0.6-0.6-1.2-1.1-1.8-1.7c-0.2-0.2-0.3-0.3-0.5-0.5   c-0.6-0.6-1.2-1.2-1.8-1.9c-1.6-1.4-2.9-3.4-4.1-5.2c-1.3-1.9-2.5-3.9-3.5-5.9c-6.3-12.2-6.7-27.7,1.3-39.2l6.5-9.2   c-5.3,9-6,20.1-2.9,30c2.9,9.5,9.1,17.9,16.9,24.1c0.2,0.1,0.3,0.3,0.5,0.4c0.7,0.6,1.5,1.1,2.2,1.6c0.4,0.2,0.7,0.5,1.1,0.7   c0.2,0.1,0.3,0.2,0.5,0.3c0.5,0.4,1.1,0.7,1.7,1c0.1,0.1,0.2,0.1,0.3,0.2c0.5,0.3,0.9,0.5,1.4,0.8c0.2,0.1,0.4,0.2,0.6,0.3   c0.4,0.2,0.7,0.4,1.1,0.6c0.7,0.3,1.4,0.7,2.2,1c0.1,0.1,0.3,0.1,0.5,0.2c0.6,0.3,1.2,0.5,1.8,0.7c0.2,0.1,0.5,0.2,0.7,0.3   c0.5,0.2,1.1,0.4,1.6,0.6c0.2,0.1,0.5,0.2,0.7,0.2c0.8,0.2,1.5,0.5,2.3,0.7c17.8,4.6,34.5-1.3,43.1-13.7   C293.6,490.5,284,522.3,242.6,515.5z M369.1,485.8l-6.4,29.8l-6.9,32.1c-5.9,27.7-15,37.9-32.4,37.9h-1.2c-7,0-17-1.4-17-1.4   c-1.1,0-1.8-1-1.5-2.1l4.6-19.8c0.3-1.1,0.4-3.2,2.5-2.6h0c0,0,4,0.8,7.4,1c7.4,0.5,10.6-11.7,10.6-11.7c0.4-1.1,4.1-17.9,4.1-17.9   l7-31.8l3.1-13.8c0.2-1.1,1.4-2,2.5-2l22.2,0.1C368.7,483.7,369.4,484.7,369.1,485.8z M375.5,457.2l-4,18.2   c-0.2,1.1-1.3,2.1-2.5,2.1h-22.1c-1.1,0-1.8-0.9-1.6-1.9l4.2-18c0.2-1.1,1.4-1.4,2.5-1.4h23.1C375.8,456.2,375.5,457.2,375.5,457.2   z M489.6,480.5c-2.5,15.3-13.4,41.7-13.4,41.7c-0.1,0.2-0.1,0.3-0.1,0.4c-0.1,0.8,0.4,1.4,1.4,1.4l4.8,0l4.8,0c1.1,0,1.8,0.9,1.5,2   l-5,19.2c-0.3,1.1-1.4,1.9-2.5,2l-59.7,0c-39.1,0.2-47.6-26.8-41.1-57.8c6.5-30.8,23.6-59.1,62.9-59.1   C482.8,430.4,493,460.1,489.6,480.5z M571.1,545.9c-0.2,1.1-1.3,1.4-2.5,1.4c0,0-43.2,0-43.7,0c-27.6-0.7-27.5-21.7-23.4-45.5   l8.3-44.1c0.2-1.1,1.3-1.5,2.4-1.5h20.5c1.1,0,1.8,0.4,1.6,1.5c0,0-8.9,44-9,44.1c-2.9,13.3-4.5,22.1,9.5,22.1h14.2   c1.1,0,2.2,0.1,2.4-1l7.1-31.9l7.1-33.3c0.2-1.1,1.3-1.5,2.4-1.5h21.6c0.4,0,0,1,0,1l-9.3,44.4L571.1,545.9z M675,510.2   c0,0-0.1,1.4-2.5,1.4h-55.7c-1.1,0-2.3,2.6-2.3,3.7c-0.5,9.1,4.2,13.1,17.3,13.1H668c1.1,0,1.8,0.3,1.6,1.4l-4,15.4   c-0.2,1.1-1.3,2.1-2.4,2.1c0,0-19.4,0-35.3,0h-1.5c-40.2,0-40.7-19.2-35.5-43.5c5.2-23.8,14.4-47.8,53.3-47.8   C681,456,680.7,484.6,675,510.2z M718.7,480l-7.2,33.7l-5.9,30.4c-0.2,1.1-0.5,2.7-1.1,3c-0.6,0.2-2.6,0.2-3.7,0.2h-16.7   c-1.1,0-3.2,0.1-3.4-0.5c-0.1-0.5-0.1-1.3,0.2-2.4l18.3-86.7c0.2-1.1,1.3-1.6,2.4-1.6h48.2c11.5,0,16.6,3.3,18.4,10.3l2.3,9.6   c0.3,1.1-0.4,2-1.5,2l-47.7,0C720.1,478.1,719,479,718.7,480z M845.5,442.9l-60.6,80.4c-0.7,0.9-1.4,2.4-1.7,3.4l-5,19.3   c-0.3,1.1-1.4,1.4-2.5,1.4H752c-1.1,0-1.8-0.3-1.5-1.4l5-19c0.3-1.1,0.2-2.8-0.1-3.9l-10.7-37.5c-0.3-1.1,0.4-2,1.5-2h23.9   c1.1,0,2.2,0.9,2.5,2l2.7,12c0.2,1.1,1,1.1,1.6,0.2L814,443c0.6-0.9,2-2.1,3.2-2.1c0,0,20,0,21.2,0l6.6,0   C846,440.9,846.1,442,845.5,442.9z"/>
</g>
</svg>